<svg width="448" height="513" viewBox="0 0 448 513" fill="none" xmlns="http://www.w3.org/2000/svg">
<path d="M32 464.004C32 490.504 53.5 512.004 80 512.004H368C394.5 512.004 416 490.504 416 464.004V128.004H32V464.004ZM304 208.004C304 199.104 311.1 192.004 320 192.004C328.9 192.004 336 199.129 336 208.004V432.004C336 440.879 328.875 448.004 320 448.004C311.125 448.004 304 440.879 304 432.004V208.004ZM208 208.004C208 199.104 215.1 192.004 224 192.004C232.9 192.004 240 199.129 240 208.004V432.004C240 440.879 232.875 448.004 224 448.004C215.125 448.004 208 440.879 208 432.004V208.004ZM112 208.004C112 199.104 119.1 192.004 128 192.004C136.9 192.004 144 199.129 144 208.004V432.004C144 440.904 136.9 448.004 128 448.004C119.1 448.004 112 440.879 112 432.004V208.004ZM432 32.004H320L308.42 8.844C305.711 3.424 300.17 0 294.11 0H153.9C147.839 0 142.3 3.424 139.59 8.844L128 32.004H16C7.164 32.004 0 39.166 0 48.004V80.004C0 88.84 7.164 96.004 16 96.004H432C440.838 96.004 448 88.84 448 80.004V48.004C448 39.164 440.8 32.004 432 32.004Z" fill="#EC0025"/>
</svg>
